<?xml version="1.0" encoding="iso-8859-1"?>
<!-- Uploaded to: SVG Repo, www.svgrepo.com, Generator: SVG Repo Mixer Tools -->
<svg version="1.1" id="Layer_1" xmlns="http://www.w3.org/2000/svg" xmlns:xlink="http://www.w3.org/1999/xlink" 
	 viewBox="0 0 512 512" xml:space="preserve">
<polygon style="fill:#FFB912;" points="395.479,29.064 329.319,8.836 256.002,109.973 182.679,8.836 116.52,29.064 10.79,128.465 
	62.832,209.029 116.52,184.344 116.52,504.415 395.479,504.415 395.479,184.344 449.167,209.029 501.209,128.465 "/>
<g>
	<rect x="201.686" y="308.648" style="fill:#F63455;" width="39.404" height="133.133"/>
	<rect x="271.433" y="308.648" style="fill:#F63455;" width="39.404" height="79.546"/>
	<polyline style="fill:#F63455;" points="183.531,269.239 395.479,269.239 395.479,308.644 116.52,308.644 116.52,269.239 
		163.303,269.239 	"/>
</g>
<path style="fill:#153651;" d="M399.386,22.328L326.358,0l-70.356,97.051L185.641,0l-73.028,22.328L0.989,127.27l59.041,91.397
	l48.907-22.487v65.475v54.574V512h294.128V316.228v-54.574v-65.475l48.907,22.487l59.041-91.397L399.386,22.328z M387.894,496.831
	H124.105V316.228h69.998v133.135h54.573V316.228h15.172v79.548h54.573v-79.548h69.474L387.894,496.831L387.894,496.831z
	 M209.271,316.228h24.235v117.966h-24.235V316.228z M279.016,316.228h24.235v64.379h-24.235V316.228z M446.363,199.392
	l-58.468-26.883v58.804h-77.058v15.169h77.058v15.172H183.531v15.169h204.363v24.236H318.42h-54.573h-15.172h-54.573h-69.998
	v-24.235h39.2v-15.169h-39.2V172.51l-58.468,26.883l-45.046-69.732l99.837-93.86l59.29-18.127l76.285,105.222l76.278-105.222
	l59.29,18.127l99.837,93.86L446.363,199.392z"/>
</svg>