<?xml version="1.0" encoding="utf-8"?>
<!-- Uploaded to: SVG Repo, www.svgrepo.com, Generator: SVG Repo Mixer Tools -->
<svg fill="#000000" height="800px" width="800px" version="1.2" baseProfile="tiny" id="Layer_1" xmlns="http://www.w3.org/2000/svg" xmlns:xlink="http://www.w3.org/1999/xlink"
	  viewBox="0 0 256 256" xml:space="preserve">
<path d="M171.6,153.2c0-8.5,6.9-15.4,15.4-15.4s15.4,6.9,15.4,15.4s-6.9,15.4-15.4,15.4S171.6,161.7,171.6,153.2z M183.4,191.5
	c0-8.5-6.9-15.4-15.4-15.4s-15.4,6.9-15.4,15.4c0,8.5,6.9,15.4,15.4,15.4S183.4,200,183.4,191.5z M143.5,209.7h-17.3H109
	c-10.5,0-17.1,8.7-17.1,19.6v26.8h11.8v-23.7c0-1.1,0.9-1.8,1.8-1.8c1.1,0,1.8,0.7,1.8,1.8V256h38v-23.6c0-1.1,0.9-1.8,1.8-1.8
	c1.1,0,1.8,0.9,1.8,1.8V256h11.8v-26.6C160.9,218.4,154.3,209.7,143.5,209.7z M163.2,153.2c0-8.5-6.9-15.4-15.4-15.4
	c-8.5,0-15.4,6.9-15.4,15.4s6.9,15.4,15.4,15.4C156.3,168.6,163.2,161.7,163.2,153.2z M193,191.5c0,8.5,6.9,15.4,15.4,15.4
	s15.4-6.9,15.4-15.4s-6.9-15.4-15.4-15.4S193,183,193,191.5z M226.2,209.6h-17.3h-17.4v0.1c-10.5,0-17.1,8.7-17.1,19.6v26.8h11.8
	v-23.7c0-1.1,0.9-1.8,1.8-1.8c1.1,0,1.8,0.7,1.8,1.8V256h38v-23.6c0-1.1,0.9-1.8,1.8-1.8c1.1,0,1.8,0.9,1.8,1.8V256h11.8v-26.6
	C243.4,218.3,236.8,209.6,226.2,209.6z M47.3,206.9c8.5,0,15.4-6.9,15.4-15.4c0-8.5-6.9-15.4-15.4-15.4s-15.4,6.9-15.4,15.4
	C31.9,200,38.8,206.9,47.3,206.9z M64.4,209.6H47.1H29.8c-10.5,0-17.1,8.7-17.1,19.6V256h11.7v0v-23.6c0-1.1,0.9-1.8,1.8-1.8
	c1.1,0,1.8,0.7,1.8,1.8V256h38v-23.6c0-1.1,0.9-1.8,1.8-1.8c1.1,0,1.8,0.9,1.8,1.8V256h11.8v-26.6C81.7,218.3,75,209.6,64.4,209.6z
	 M126.3,206.9c8.5,0,15.4-6.9,15.4-15.4s-6.9-15.4-15.4-15.4s-15.4,6.9-15.4,15.4S117.8,206.9,126.3,206.9z M67,168.6
	c8.5,0,15.4-6.9,15.4-15.4s-6.9-15.4-15.4-15.4s-15.4,6.9-15.4,15.4S58.5,168.6,67,168.6z M93.1,153.2c0,8.5,6.9,15.4,15.4,15.4
	s15.4-6.9,15.4-15.4s-6.9-15.4-15.4-15.4S93.1,144.8,93.1,153.2z M103.2,191.5c0-8.5-6.9-15.4-15.4-15.4s-15.4,6.9-15.4,15.4
	c0,8.5,6.9,15.4,15.4,15.4S103.2,200,103.2,191.5z M121.3,92.7h11.3l-1.1-5.9h-9.1L121.3,92.7z M124.2,76.7l-0.7,4h7.1l-0.7-4H124.2
	z M91.3,46.7c0-20.1,16.5-36.4,36.7-36.4s36.7,16.2,36.7,36.4v46.9h10.4V46.7C175.1,20.9,154,0,128,0S80.9,20.9,80.9,46.7v46.9h10.4
	V46.7z M118.7,108.5h16.7l-1.4-7.9h-14L118.7,108.5z M140.9,54c0-7.6-6.3-13.8-13.9-13.8c-7.6,0-13.9,6.2-13.9,13.8v18.8h27.8V54z"
	/>
</svg>