<?xml version="1.0" encoding="utf-8"?>
<!-- Uploaded to: SVG Repo, www.svgrepo.com, Generator: SVG Repo Mixer Tools -->
<svg width="800px" height="800px" viewBox="0 0 1024 1024" class="icon"  version="1.1" xmlns="http://www.w3.org/2000/svg"><path d="M523.829335 276.808732a218.3 225.9 21.251 1 0 406.911874 158.247549 218.3 225.9 21.251 1 0-406.911874-158.247549Z" fill="#B6CDEF" /><path d="M722.4 593.8c-27.6 0-55.2-5.1-81.6-15.4C583.1 556 538 511.8 513.7 453.8c-24.3-57.8-24.9-122.3-1.8-181.7C535 212.7 579.1 165.6 636 139.4c57.1-26.3 120.3-28.4 177.9-6C871.5 155.8 916.6 200.1 941 258c24.3 57.8 24.9 122.3 1.8 181.7-23.1 59.4-67.2 106.5-124.1 132.7-31 14.3-63.7 21.4-96.3 21.4z m9.9-450c-29 0-58.1 6.4-85.5 19-50.8 23.4-90.2 65.5-110.9 118.6-20.6 53.1-20.1 110.8 1.6 162.4 21.6 51.5 61.6 90.7 112.7 110.6 23.4 9.1 47.8 13.6 72.2 13.6 29 0 58-6.4 85.5-19 50.8-23.4 90.2-65.5 110.9-118.6 20.6-53.1 20.1-110.8-1.6-162.4-21.6-51.5-61.6-90.7-112.7-110.6-23.4-9.1-47.8-13.6-72.2-13.6z" fill="#0F53A8" /><path d="M514.8 416.4c16.7 66.6 63.2 123.8 130.6 150s140.3 15.5 197.7-22.3L514.8 416.4z" fill="#89B7F5" /><path d="M722.5 593.7c-27.9 0-55.7-5.2-81.7-15.3-34.5-13.4-65.4-35.4-89.5-63.5-23.2-27.2-40.2-60.1-49-95.4-1.2-4.7 0.4-9.6 4-12.8 3.6-3.2 8.7-4.1 13.2-2.3l328.3 127.7c4.5 1.7 7.6 5.9 8.2 10.7 0.5 4.8-1.7 9.5-5.7 12.1-30.3 20-65.1 32.9-100.6 37.2-9.1 1.1-18.2 1.6-27.2 1.6zM535.2 438.2c8.5 22 20.6 42.4 35.7 60 21.6 25.3 48.2 44.2 79.2 56.2s63.4 16.1 96.4 12.1c23-2.8 45.7-9.7 66.8-20.1L535.2 438.2z" fill="#0F53A8" /><path d="M574.9 747.9c-17.5-6.8-26.2-26.7-19.4-44.2l62.6-161c6.8-17.5 26.7-26.2 44.2-19.4 17.5 6.8 26.2 26.7 19.4 44.2l-62.6 161c-6.9 17.5-26.8 26.2-44.2 19.4z" fill="#B6CDEF" /><path d="M587.2 763.1c-5.7 0-11.4-1-17-3.2-11.7-4.5-20.9-13.4-26-24.9-5.1-11.5-5.4-24.3-0.8-36L606 538c9.4-24.2 36.7-36.2 60.9-26.8 11.7 4.5 20.9 13.4 26 24.9 5.1 11.5 5.4 24.3 0.8 36l-62.6 161c-7.3 18.6-25.1 30-43.9 30z m62.7-229.2c-8.5 0-16.5 5.1-19.8 13.5l-62.6 161c-2 5.2-1.9 11 0.4 16.2 2.3 5.2 6.4 9.2 11.7 11.2 10.9 4.2 23.2-1.2 27.5-12.1l62.6-161c2-5.2 1.9-11-0.4-16.2-2.3-5.2-6.4-9.2-11.7-11.2-2.6-0.9-5.2-1.4-7.7-1.4z" fill="#0F53A8" /><path d="M618.5 159.9m-47.2 0a47.2 47.2 0 1 0 94.4 0 47.2 47.2 0 1 0-94.4 0Z" fill="#89B7F5" /><path d="M618.5 219.9c-7.2 0-14.6-1.3-21.7-4.1-15-5.8-26.7-17.1-33.2-31.8-6.5-14.7-6.8-31-1-46 5.8-14.9 17.1-26.7 31.8-33.2 14.7-6.5 31-6.8 46-1 30.9 12 46.2 46.9 34.2 77.7-9.3 23.9-32.1 38.4-56.1 38.4z m0-94.3c-4.7 0-9.4 1-13.8 2.9-8.4 3.7-14.8 10.4-18.1 18.9-3.3 8.5-3.1 17.8 0.6 26.2 3.7 8.4 10.4 14.8 18.9 18.1 17.6 6.8 37.5-1.9 44.3-19.5 6.8-17.6-1.9-37.5-19.5-44.3-4-1.5-8.2-2.3-12.4-2.3z" fill="#0F53A8" /><path d="M40.270051 418.297475a225.895482 218.295634 87.741 1 0 436.251974-17.209019 225.895482 218.295634 87.741 1 0-436.251974 17.209019Z" fill="#B6CDEF" /><path d="M258.8 648.4c-58.5 0-114-22.4-157.2-63.8C56.3 541.3 30 482.4 27.4 418.7c-2.5-63.6 19.1-124.5 60.9-171.2 41.9-46.9 99-74 160.8-76.5 61.8-2.4 120.8 20.1 166.3 63.6 45.3 43.3 71.7 102.2 74.2 165.9 2.5 63.6-19.1 124.5-60.9 171.2-41.9 46.9-99 74-160.8 76.5-3.1 0.2-6.1 0.2-9.1 0.2z m-0.8-451.7c-2.7 0-5.3 0.1-8 0.2-54.7 2.2-105.4 26.3-142.5 67.9-37.3 41.7-56.6 96.1-54.3 153 2.2 56.9 25.8 109.6 66.2 148.3 40.3 38.6 92.7 58.6 147.4 56.5 54.7-2.2 105.4-26.3 142.5-67.9 37.3-41.7 56.6-96.1 54.3-153S437.9 292 397.5 253.3c-38.4-36.7-87.6-56.6-139.5-56.6z" fill="#0F53A8" /><path d="M86.8 548.5c41.9 54.4 107.4 88.3 179.6 85.4 72.3-2.9 134.9-41.8 172.3-99.3L86.8 548.5z" fill="#89B7F5" /><path d="M258.2 647c-34 0-67.9-7.8-98.6-22.7-32.1-15.6-60.8-39.1-83-67.9-2.9-3.8-3.5-9-1.5-13.3 2-4.4 6.4-7.2 11.2-7.4l352-13.9c4.8-0.2 9.3 2.3 11.7 6.5 2.4 4.2 2.2 9.4-0.4 13.4-19.8 30.5-46.6 56.1-77.4 74.3-31.9 18.8-68.3 29.5-105.2 30.9-2.9 0-5.9 0.1-8.8 0.1z m-143.9-86.7c16.6 16.7 35.8 30.6 56.6 40.8 29.9 14.5 61.9 21.3 95 19.9 33.2-1.3 64.5-10.5 93.2-27.4 20-11.8 38.1-27.1 53.3-45.1l-298.1 11.8z" fill="#0F53A8" /><path d="M274.1 828.5c-18.7 0.7-34.7-14-35.4-32.7l-6.8-172.6c-0.7-18.7 14-34.7 32.7-35.4 18.7-0.7 34.7 14 35.4 32.7l6.8 172.6c0.8 18.7-13.9 34.7-32.7 35.4z" fill="#B6CDEF" /><path d="M272.8 841.4c-11.8 0-23.1-4.4-31.8-12.5-9.2-8.5-14.6-20.1-15.1-32.6L219 623.7c-1-25.9 19.2-47.8 45.1-48.8 25.9-1 47.8 19.2 48.8 45.1l6.8 172.6c0.5 12.5-3.9 24.5-12.5 33.7-8.5 9.2-20.1 14.6-32.6 15.1h-1.8zM266 600.6h-0.8c-11.7 0.5-20.8 10.3-20.4 22l6.8 172.6c0.2 5.6 2.6 10.8 6.8 14.7 4.2 3.9 9.6 5.9 15.2 5.6 5.6-0.2 10.8-2.6 14.7-6.8 3.9-4.2 5.9-9.6 5.6-15.2L287.2 621c-0.5-11.4-9.9-20.4-21.2-20.4z" fill="#0F53A8" /><path d="M343.3 289.4m-47.2 0a47.2 47.2 0 1 0 94.4 0 47.2 47.2 0 1 0-94.4 0Z" fill="#89B7F5" /><path d="M343.3 349.4c-32 0-58.7-25.4-60-57.7-1.3-33.1 24.6-61.1 57.6-62.4 33.1-1.3 61.1 24.6 62.4 57.6 1.3 33.1-24.6 61.1-57.6 62.4-0.8 0.1-1.6 0.1-2.4 0.1z m0-94.3h-1.4c-9.1 0.4-17.6 4.3-23.8 11-6.2 6.7-9.4 15.5-9.1 24.6 0.7 18.4 15.9 32.9 34.2 32.9h1.4c18.9-0.7 33.6-16.7 32.9-35.6-0.7-18.4-15.9-32.9-34.2-32.9z" fill="#0F53A8" /></svg>